<svg style="position: absolute; width: 0; height: 0;" width="0" height="0" version="1.1" xmlns="http://www.w3.org/2000/svg" xmlns:xlink="http://www.w3.org/1999/xlink">
	<defs>
	<symbol id="icon--aa" viewBox="0 0 1024 1024">
		<title>Abbas Arezoo Logo</title>
		<path class="path1" d="M238.316 184.32l-238.316 643.215h161.321l46.674-136.499h209.121l46.684 136.499h161.331l-15.38-41.523c38.84 33.556 88.381 53.668 142.305 53.668 52.040 0 99.922-18.678 138.107-50.115v39.844h133.837v-459.981h-133.827v39.844c-38.185-31.416-86.067-50.125-138.107-50.125-114.156 0-208.548 90.071-223.775 207.043l-141.486-381.87h-148.49zM250.849 565.76l61.716-180.439 61.716 180.439h-123.433zM779.561 711.363c-60.099 0-108.8-51.804-108.8-115.681 0-63.887 48.701-115.692 108.8-115.692 60.068 0 108.79 51.804 108.79 115.692 0 63.877-48.722 115.681-108.79 115.681z"></path>
	</symbol>
	<symbol id="icon--arrow" viewBox="0 0 1024 1024">
		<title>Arrow</title>
		<path class="path1" d="M393.779 675.072c-13.107 12.8-13.107 33.792 0 46.746 13.107 12.8 34.406 12.8 47.718 0l188.621-186.522c13.21-12.8 13.21-33.894 0-46.694l-188.621-186.368c-13.312-12.8-34.509-12.8-47.718 0-13.107 13.005-13.107 33.792-0.102 46.592l154.778 163.226-154.624 163.021z"></path>
	</symbol>
	</defs>
</svg>